HIERARCHY
ROOT Hips
{
	OFFSET -3.958830 18.904000 13.208200
	CHANNELS 6 Xposition Yposition Zposition Zrotation Yrotation Xrotation 
	JOINT LHipJoint
	{
		OFFSET 0.000000 0.000000 0.000000
		CHANNELS 3 Zrotation Yrotation Xrotation
		JOINT LeftUpLeg
		{
			OFFSET 1.800000 -1.400000 0.085000
			CHANNELS 3 Zrotation Yrotation Xrotation
			JOINT LeftLeg
			{
				OFFSET 2.215000 -6.000000 0.000000
				CHANNELS 3 Zrotation Yrotation Xrotation
				JOINT LeftFoot
				{
					OFFSET 2.500000 -6.900000 0.000000
					CHANNELS 3 Zrotation Yrotation Xrotation
					JOINT LeftToeBase
					{
						OFFSET 0.200000 -0.500000 1.950000
						CHANNELS 3 Zrotation Yrotation Xrotation
						End Site
						{
							OFFSET 0.000000 0.000000 0.000000
						}
					}
				}
			}
		}
	}
	JOINT RHipJoint
	{
		OFFSET 0.000000 0.000000 0.000000
		CHANNELS 3 Zrotation Yrotation Xrotation
		JOINT RightUpLeg
		{
			OFFSET -1.800000 -1.400000 0.085000
			CHANNELS 3 Zrotation Yrotation Xrotation
			JOINT RightLeg
			{
				OFFSET -2.215000 -6.000000 0.000000
				CHANNELS 3 Zrotation Yrotation Xrotation
				JOINT RightFoot
				{
					OFFSET -2.500000 -6.900000 0.000000
					CHANNELS 3 Zrotation Yrotation Xrotation
					JOINT RightToeBase
					{
						OFFSET -0.200000 -0.500000 1.950000
						CHANNELS 3 Zrotation Yrotation Xrotation
						End Site
						{
							OFFSET 0.000000 0.000000 0.000000
						}
					}
				}
			}
		}
	}
	JOINT LowerBack
	{
		OFFSET 0.000000 0.000000 0.000000
		CHANNELS 3 Zrotation Yrotation Xrotation
		JOINT Spine
		{
			OFFSET -0.087000 1.940000 -0.288900
			CHANNELS 3 Zrotation Yrotation Xrotation
			JOINT Spine1
			{
				OFFSET 0.000000 1.950000 0.060000
				CHANNELS 3 Zrotation Yrotation Xrotation
				JOINT Neck
				{
					OFFSET 0.000000 0.000000 0.000000
					CHANNELS 3 Zrotation Yrotation Xrotation
					JOINT Neck1
					{
						OFFSET 0.000000 1.600000 0.340000
						CHANNELS 3 Zrotation Yrotation Xrotation
						JOINT Head
						{
							OFFSET 0.000000 1.667000 -0.240000
							CHANNELS 3 Zrotation Yrotation Xrotation
							End Site
							{
								OFFSET 0.000000 0.000000 0.000000
							}
						}
					}
				}
				JOINT LeftShoulder
				{
					OFFSET 0.000000 0.000000 0.000000
					CHANNELS 3 Zrotation Yrotation Xrotation
					JOINT LeftArm
					{
						OFFSET 2.700000 1.550000 -0.730000
						CHANNELS 3 Zrotation Yrotation Xrotation
						JOINT LeftForeArm
						{
							OFFSET 5.450000 0.000000 0.000000
							CHANNELS 3 Zrotation Yrotation Xrotation
							JOINT LeftHand
							{
								OFFSET 3.450000 0.000000 0.000000
								CHANNELS 3 Zrotation Yrotation Xrotation
								JOINT LeftHandIndex1
								{
									OFFSET 0.750000 0.000000 0.000000
									CHANNELS 3 Zrotation Yrotation Xrotation
									End Site
									{
										OFFSET 0.000000 0.000000 0.000000
									}
								}
							}
						}
					}
				}
				JOINT RightShoulder
				{
					OFFSET 0.000000 0.000000 0.000000
					CHANNELS 3 Zrotation Yrotation Xrotation
					JOINT RightArm
					{
						OFFSET -2.700000 1.550000 -0.730000
						CHANNELS 3 Zrotation Yrotation Xrotation
						JOINT RightForeArm
						{
							OFFSET -5.450000 0.000000 0.000000
							CHANNELS 3 Zrotation Yrotation Xrotation
							JOINT RightHand
							{
								OFFSET -3.450000 0.000000 0.000000
								CHANNELS 3 Zrotation Yrotation Xrotation
								JOINT RightHandIndex1
								{
									OFFSET -0.750000 0.000000 0.000000
									CHANNELS 3 Zrotation Yrotation Xrotation
									End Site
									{
										OFFSET 0.000000 0.000000 0.000000
									}
								}
							}
						}
					}
				}
			}
		}
	}
}
MOTION
Frames: 10
Frame Time: 0.016667
0.416740 17.770870 -2.637470 3.307561 8.667748 -4.959958 -14.827227 12.381299 3.366128 2.667248 -4.153422 -27.094348 -6.930066 6.141460 20.109663 -0.354950 3.669642 3.172500 0.446810 0.424310 0.213100 18.615716 -11.284361 2.930416 0.044783 4.392033 -16.574375 4.095145 -11.101965 51.866062 -1.110315 -8.207119 1.481723 0.370580 0.080370 0.097710 -4.730907 0.102424 -7.790755 16.066717 -0.052389 20.129830 -9.316179 3.831066 16.435151 2.965916 -5.081375 -8.439826 -12.353440 -4.450112 37.484735 -1.698870 -9.105840 -9.323300 -19.789636 -16.441184 4.040874 -41.973795 -33.818081 11.579147 -171.183401 -81.003105 166.866750 -3.431513 3.216536 0.024720 0.060760 -0.028930 0.159870 13.218595 20.909129 5.292106 24.532540 25.083463 -0.723365 177.966228 76.642170 171.698092 1.871972 -1.826719 0.007690 0.167620 -0.106510 0.008430 
0.409720 17.774160 -2.600300 2.273097 12.134235 -4.901860 -14.878068 12.221109 3.197169 1.649215 -4.477037 -27.331988 -4.988496 6.133030 23.386224 -0.309401 3.825819 3.089443 0.471680 0.437990 0.264940 18.641855 -10.687368 3.519908 -0.759137 7.292466 -23.317991 8.166844 -16.364886 61.578999 -1.675842 -10.267731 0.836979 0.346140 -0.001950 0.082710 -4.755982 -0.220092 -8.130770 16.735994 -1.601957 22.490461 -9.372655 2.386245 13.902069 3.349618 -4.840305 -8.230906 -12.308249 -4.166858 39.473320 -0.633940 -9.227660 -11.284210 -20.949926 -13.651283 3.490828 -47.864738 -28.535488 8.932515 -122.858246 -74.490282 102.276739 -3.655731 2.418224 0.111670 -0.024950 0.046910 0.143210 13.745759 17.819241 4.571956 30.278337 21.075225 -3.848077 139.398392 71.315932 117.218109 2.090010 -0.882018 0.020930 0.164600 -0.130630 -0.013170 
0.384470 17.741990 -2.560650 1.780904 16.035877 -4.532142 -14.947818 12.009834 3.086294 0.285910 -4.999034 -27.693339 -3.330131 6.092298 26.514386 -0.226243 4.039358 2.998567 0.467740 0.421290 0.278590 18.656494 -10.012704 4.136159 -3.019358 9.601014 -29.798960 12.904006 -22.939561 69.166853 -2.265793 -12.382249 0.252165 0.301750 -0.063030 0.066240 -4.725511 -0.646995 -8.480797 16.882582 -2.965432 24.494399 -9.400117 1.150934 11.412562 3.359220 -4.766805 -8.339969 -12.768493 -4.176614 41.281632 0.683760 -9.925870 -11.984010 -22.371587 -11.167526 2.779145 -51.849373 -23.181102 7.065412 -105.707863 -67.921424 73.696494 -3.797803 3.070737 0.180510 -0.100450 0.103550 0.133280 15.133185 15.118315 4.939698 35.216506 16.684258 -4.633924 120.836127 67.286668 84.128584 2.720561 -0.760185 0.033500 0.153580 -0.144000 -0.020010 
0.352390 17.686600 -2.513320 1.092458 18.135205 -4.627069 -14.980390 11.836809 2.964046 0.121648 -5.270328 -27.755570 -2.078841 6.153582 29.426616 -0.157511 4.337826 2.854229 0.497570 0.446240 0.320590 18.684643 -9.507765 4.669226 -4.508463 11.414525 -35.127038 15.342165 -28.358155 75.856645 -2.797836 -14.134642 -0.185294 0.281010 -0.147280 0.063460 -4.721120 -0.876119 -8.768413 17.139375 -3.901752 27.052446 -9.728903 0.512410 8.647580 3.345133 -4.517614 -8.028677 -12.674427 -3.823096 43.240190 2.130710 -10.056050 -14.002430 -24.274986 -9.177411 1.574781 -52.883285 -17.739519 2.027413 -91.070227 -58.881867 51.598152 -3.580541 3.486883 0.266790 -0.185230 0.183550 0.115420 16.952958 12.824220 5.166781 40.128824 12.841380 -4.596113 110.512960 60.713318 63.263796 2.776835 -1.527032 0.057960 0.138770 -0.161970 -0.036930 
0.322070 17.607390 -2.454440 0.051600 19.527144 -5.316228 -15.024992 11.767307 2.825164 0.844865 -5.306791 -27.544107 -1.213887 6.377451 32.172077 -0.086528 4.729935 2.680455 0.521410 0.467480 0.361580 18.677503 -9.054278 5.124343 -5.478199 13.024167 -39.031107 17.970237 -33.914473 81.054708 -3.288719 -15.684180 -0.525208 0.265100 -0.218430 0.060960 -4.633059 -1.198981 -9.013247 17.111064 -4.611095 29.793574 -9.383413 0.209829 5.934167 3.394805 -4.082166 -7.581995 -12.196454 -3.500934 45.428376 3.174800 -9.810270 -15.627210 -26.605925 -7.614583 0.619581 -53.598786 -13.062516 -2.689399 -78.086616 -51.027083 35.355376 -3.433416 3.492975 0.342280 -0.252930 0.253750 0.097620 19.146018 11.001376 4.988007 42.987087 8.432789 -6.848915 99.039701 55.599254 47.480035 2.691626 -1.803312 0.074490 0.129520 -0.176820 -0.055770 
0.258290 17.499530 -2.398250 -1.290170 19.930703 -6.245394 -15.057782 11.702033 2.692557 2.420870 -5.255826 -27.695750 -0.433642 6.749565 35.182841 -0.011764 5.261052 2.474477 0.535470 0.479140 0.384630 18.676786 -8.651940 5.517118 -5.417643 14.928653 -42.585627 20.270116 -39.151894 85.526716 -3.723980 -17.085325 -0.793883 0.263110 -0.249780 0.055360 -4.545811 -1.441043 -9.221547 17.081322 -5.124227 32.752420 -9.210738 0.232974 2.994259 3.328372 -3.730451 -6.696686 -11.675152 -3.669463 46.660231 3.820050 -9.721430 -16.407640 -29.958705 -6.185847 -0.500764 -51.602009 -9.465781 -5.699787 -68.144154 -45.926561 25.905162 -3.369209 3.428259 0.382420 -0.285080 0.286510 0.091810 22.532203 9.415762 4.362661 44.221982 4.871433 -9.133055 85.526161 50.475097 33.759205 2.590913 -1.863033 0.075020 0.132760 -0.186140 -0.068030 
0.192530 17.367190 -2.330880 -2.348279 19.996457 -7.149266 -15.103377 11.679107 2.583103 3.995583 -5.116072 -27.812727 -0.055960 7.208939 37.405098 0.070784 5.709823 2.304480 0.546070 0.487860 0.398830 18.651503 -8.247956 5.857398 -5.899392 16.801715 -45.982402 22.565287 -44.837607 89.811692 -4.145079 -18.473799 -1.034761 0.257730 -0.272970 0.054470 -4.397900 -1.790442 -9.407458 16.402580 -5.388999 35.570315 -8.679429 0.324994 0.129273 3.105927 -3.864777 -6.014346 -12.116410 -3.196835 47.631525 4.117110 -9.467090 -16.527300 -33.138903 -5.195135 -1.264852 -49.273353 -6.078556 -8.086524 -57.932742 -42.503636 18.863823 -3.307966 3.381947 0.398070 -0.307030 0.307030 0.091500 26.088463 8.740697 3.864593 44.238453 2.207656 -10.933856 73.095016 46.575335 24.366812 2.532926 -1.826902 0.084720 0.123310 -0.198300 -0.070660 
0.140990 17.237250 -2.281900 -3.473575 20.045510 -8.341321 -15.169843 11.650782 2.529743 5.649594 -5.065890 -28.400078 0.549015 7.748846 40.275355 0.149911 6.291478 2.082100 0.558560 0.502880 0.418550 18.600257 -7.815136 6.150947 -7.637866 18.142051 -49.501264 25.325495 -51.660643 93.611937 -4.560382 -19.823649 -1.242166 0.263200 -0.293590 0.056920 -4.179604 -2.226663 -9.597098 15.550762 -5.532087 38.571020 -7.666829 0.466392 -2.322807 3.053369 -3.412941 -5.476780 -11.265770 -3.002992 48.473616 4.072700 -8.730740 -17.015050 -35.988368 -5.036878 -1.604865 -46.867333 -3.355543 -9.686542 -49.713156 -40.588334 14.438974 -3.257962 3.347354 0.417730 -0.317010 0.326330 0.084430 29.128373 8.576010 3.365602 42.754047 0.816655 -11.872372 62.138957 44.222261 18.402611 2.471733 -1.761739 0.086500 0.120180 -0.203120 -0.083230 
0.096840 17.129060 -2.243680 -4.442357 20.106147 -9.562732 -15.215066 11.572712 2.496742 6.590621 -5.122651 -29.298849 2.387562 7.799641 43.798844 0.231222 6.862951 1.862992 0.578640 0.527000 0.460640 18.575041 -7.480699 6.383327 -10.301401 18.627922 -52.612551 26.762052 -57.669146 97.325693 -4.899980 -20.869615 -1.386619 0.271520 -0.331210 0.057330 -4.041474 -2.458567 -9.755974 14.849670 -5.614770 41.174332 -7.522381 0.506633 -3.799311 3.296210 -2.472603 -5.280488 -9.346183 -3.048514 49.491678 4.057050 -7.616690 -18.150130 -37.459686 -5.194912 -1.642146 -44.054449 -1.245286 -10.609294 -44.555704 -40.180599 12.362765 -3.198402 3.328027 0.452960 -0.337880 0.362750 0.069210 30.255116 8.203858 3.177609 42.316805 -0.490641 -12.613191 56.387715 43.952100 16.080327 2.440390 -1.706042 0.087070 0.120260 -0.214050 -0.105940 
0.026560 17.039140 -2.190210 -5.317419 19.999801 -10.848260 -15.239954 11.470955 2.462170 7.775214 -4.992427 -30.215220 4.190522 7.840329 47.112397 0.320821 7.428222 1.655153 0.597420 0.555610 0.483660 18.569416 -7.266274 6.531190 -12.506776 18.566063 -54.109092 27.869765 -62.442110 99.740723 -5.124758 -21.483164 -1.452504 0.283870 -0.349150 0.057410 -3.968673 -2.504528 -9.864650 14.098910 -5.283980 43.140235 -7.438775 0.678586 -3.850083 3.373260 -1.463562 -5.229959 -7.309587 -3.574487 49.962316 4.753710 -7.123800 -19.246680 -37.113433 -4.986971 -1.603257 -41.376691 -0.046197 -10.795516 -45.777674 -41.972045 13.685435 -3.174031 3.342834 0.476290 -0.352070 0.389900 0.066780 29.905691 7.344421 3.098611 42.313162 -1.641578 -13.128649 59.154361 47.190174 18.703554 2.441584 -1.712899 0.088470 0.127910 -0.224580 -0.114300 
